<?xml version="1.0" encoding="iso-8859-1"?>
<!-- Generator: Adobe Illustrator 19.0.0, SVG Export Plug-In . SVG Version: 6.00 Build 0)  -->
<svg version="1.1" id="Capa_1" xmlns="http://www.w3.org/2000/svg" xmlns:xlink="http://www.w3.org/1999/xlink" x="0px" y="0px"
	 viewBox="0 0 512 512" style="enable-background:new 0 0 512 512;" xml:space="preserve">
<path style="fill:#1976D2;" d="M491.322,212.672l-208-208c-3.006-2.999-7.082-4.68-11.328-4.672h-176c-8.837,0-16,7.163-16,16v176
	c0.005,4.446,1.86,8.689,5.12,11.712l224,208c2.956,2.751,6.842,4.283,10.88,4.288h0.672c4.275-0.186,8.297-2.076,11.168-5.248
	l160-176C497.585,228.435,497.359,218.715,491.322,212.672z"/>
<path style="fill:#2196F3;" d="M427.322,308.672l-208-208c-3.006-2.999-7.082-4.68-11.328-4.672h-176c-8.837,0-16,7.163-16,16v176
	c0.005,4.446,1.86,8.689,5.12,11.712l224,208c2.956,2.751,6.842,4.283,10.88,4.288h0.672c4.275-0.186,8.297-2.076,11.168-5.248
	l160-176C433.585,324.435,433.359,314.715,427.322,308.672z"/>
<circle style="fill:#FAFAFA;" cx="127.994" cy="208" r="48"/>
<path d="M457.274,265.28c-8.837-0.001-15.999-7.166-15.997-16.003c0.001-3.945,1.458-7.75,4.093-10.685l12.576-13.984L265.37,32
	H111.994v16c0,8.837-7.163,16-16,16s-16-7.163-16-16V16c0-8.837,7.163-16,16-16h176c4.246-0.008,8.322,1.673,11.328,4.672l208,208
	c6.016,6.018,6.269,15.692,0.576,22.016l-22.72,25.28C466.144,263.348,461.816,265.279,457.274,265.28z"/>
<path d="M255.994,512c-4.038-0.005-7.924-1.537-10.88-4.288l-224-208c-3.26-3.023-5.115-7.266-5.12-11.712V112
	c0-8.837,7.163-16,16-16h176c4.251,0.001,8.327,1.693,11.328,4.704l208,208c6.038,6.043,6.263,15.763,0.512,22.08l-160,176
	c-2.877,3.16-6.898,5.039-11.168,5.216H255.994z M47.994,281.024l207.04,192.224l138.848-152.704L201.37,128H47.994V281.024z"/>
<path d="M127.994,256c-26.51,0-48-21.49-48-48s21.49-48,48-48s48,21.49,48,48S154.504,256,127.994,256z M127.994,192
	c-8.837,0-16,7.163-16,16s7.163,16,16,16s16-7.163,16-16S136.83,192,127.994,192z"/>
<g>
</g>
<g>
</g>
<g>
</g>
<g>
</g>
<g>
</g>
<g>
</g>
<g>
</g>
<g>
</g>
<g>
</g>
<g>
</g>
<g>
</g>
<g>
</g>
<g>
</g>
<g>
</g>
<g>
</g>
</svg>
